<?xml version="1.0" encoding="utf-8"?>
<!-- Generator: Adobe Illustrator 28.0.0, SVG Export Plug-In . SVG Version: 6.00 Build 0)  -->
<svg version="1.1" id="Ebene_1" xmlns="http://www.w3.org/2000/svg" xmlns:xlink="http://www.w3.org/1999/xlink" x="0px" y="0px"
	 viewBox="0 0 3000 768" style="enable-background:new 0 0 3000 768;" xml:space="preserve">
<style type="text/css">
	.st0{clip-path:url(#SVGID_00000001628647076481727940000007971392858270420645_);}
	.st1{fill:#F4743B;}
	.st2{fill:#222222;}
	.st3{fill:#FFFFFF;}
</style>
<image style="overflow:visible;" width="2368" height="615" xlink:href="CB6AB668D21BC46F.png"  transform="matrix(1.2689 0 0 1.2689 -2.5378 -5.0756)">
</image>
<g>
	<defs>
		<rect id="SVGID_1_" x="1198.5" y="178.2" width="168.3" height="220.1"/>
	</defs>
	<clipPath id="SVGID_00000018943201740708855530000005843957505123563686_">
		<use xlink:href="#SVGID_1_"  style="overflow:visible;"/>
	</clipPath>
	
		<g id="Ebene_1_00000049190746141301024720000015479298277634764428_" style="clip-path:url(#SVGID_00000018943201740708855530000005843957505123563686_);">
		<path id="Vector" class="st1" d="M1282.7,178.2c46.3,0,84.1,36.7,84.1,81.7c0,18.3-6.3,35.1-16.8,48.7l-67.3,89.6l-67.3-89.6
			c-10.5-13.6-16.8-30.4-16.8-48.7C1198.5,214.9,1236.4,178.2,1282.7,178.2z"/>
		<g id="Group">
			<path id="Vector_2" class="st2" d="M1304.1,294.5L1304.1,294.5c-0.1,0.3-0.1,0.6-0.2,0.9c0,0,0,0,0,0.1l-15.6,1.6l13.9,3.7
				c-0.1,0.3-0.2,0.6-0.3,0.8c0,0.1,0,0.1-0.1,0.2c-0.1,0.2-0.1,0.4-0.2,0.6v0c-0.6,1.4-1.2,2.8-1.9,4.5c-0.2,0.4-0.4,0.8-0.6,1.2
				c0,0-0.2,0.4-0.6,1.2c-0.4,0.8-1,1.9-1.8,3.4l-8.5,1.9l6,2.6c-0.2,0.4-0.4,0.7-0.7,1.1c-0.1,0.2-0.2,0.4-0.3,0.5
				c-1.1,1.8-2.4,3.7-3.8,5.5c-0.4,0.5-0.7,1-1.1,1.4c-1.2,1.4-3.4,2.1-5.7,2.1c-2.3,0-4.6-0.7-5.7-2.1c-0.6-0.7-1.1-1.4-1.6-2.1
				c-0.2-0.2-0.4-0.5-0.5-0.7s-0.3-0.5-0.5-0.7c-0.2-0.3-0.4-0.6-0.7-1c-0.2-0.3-0.4-0.6-0.6-0.8c-2.4-3.7-4.4-7.4-5.6-9.7
				c-0.1-0.2-0.2-0.3-0.2-0.5c-0.1-0.2-0.2-0.3-0.3-0.5c-0.2-0.4-0.3-0.7-0.4-0.9l8.9-3l-10.9-1.4c-1-2.4-1.8-4.4-2.4-6.1
				c-1.5-4.6-1.6-7.2-0.7-9.1c0.5-1.2,1.4-2.1,2.5-3c0.1-0.1,0.3-0.2,0.4-0.3c3.6-2.8,8.9-3,10.4-3c0.3,0,0.4,0,0.4,0h15
				c0,0,0.1,0,0.4,0c1.5,0,6.8,0.2,10.4,3c0.1,0.1,0.3,0.2,0.4,0.3c1.6,1.3,2.8,2.6,3,4.9C1304.4,292,1304.4,293.1,1304.1,294.5
				L1304.1,294.5z"/>
			<g id="Group_2">
				<path id="Vector_3" class="st3" d="M1257.6,284.8c-3.1,4.1-2.9,8.9-0.7,15.5c-0.8,0.1-1.7,0.1-2.8,0.2c-8,0.5-14.6-0.4-16.2-4.6
					c-1.7-4.1,11.7-8.5,11.7-8.5l7.9-2.9C1257.5,284.7,1257.6,284.8,1257.6,284.8z"/>
				<path id="Vector_4" class="st3" d="M1328.6,296c-1.7,4.1-8.3,5.1-16.2,4.6c-1.7-0.1-3-0.2-4-0.3l0.7-2.3l0-0.1l0-0.1
					c1.5-5.7,0.7-9.5-1-12.2c0.3-0.3,0.6-0.5,0.9-0.8l7.9,2.9C1316.9,287.5,1330.3,291.9,1328.6,296z"/>
				<g id="Group_3">
					<path id="Vector_5" class="st3" d="M1265.3,258.3c4.4,0,8-3.6,8-8c0-4.4-3.6-8-8-8c-4.4,0-8,3.6-8,8
						C1257.2,254.7,1260.8,258.3,1265.3,258.3z"/>
					<path id="Vector_6" class="st3" d="M1300,258.3c4.4,0,8-3.6,8-8c0-4.4-3.6-8-8-8c-4.4,0-8,3.6-8,8
						C1292,254.7,1295.6,258.3,1300,258.3z"/>
					<path id="Vector_7" class="st3" d="M1324,237.6c-0.4,0-0.9,0.1-1.3,0.2c-0.3-8.7-7.4-15.6-16.2-15.6h-48
						c-8.7,0-15.9,6.9-16.2,15.6c-0.4-0.1-0.7-0.1-1.1-0.1c-2.8,0-5.1,2.3-5.1,5.1v12.3c0,2.8,2.3,5.1,5.1,5.1c0.4,0,0.8,0,1.1-0.1
						c0.1,8.8,7.3,15.9,16.2,15.9h48c8.9,0,16.1-7.1,16.2-16c0.4,0.1,0.8,0.2,1.3,0.2c2.8,0,5.1-2.3,5.1-5.1v-12.3
						C1329.1,239.9,1326.8,237.6,1324,237.6L1324,237.6z M1308.6,269.7c-6.4,0.8-22.4,1.3-25.9,1.4c-3.5-0.1-19.6-0.6-25.9-1.4
						c-6.4-0.8-10.6-7.3-9.9-22.8c1.2-14.7,3.1-15.8,6.2-17.7c1.9-1.2,9.2-1.5,12.7-1.6c3.2-0.1,3.4,2.7,3.9,5.1
						c0.4,1.9,2.1,3.2,4,3.2h17.9c1.9,0,3.6-1.3,4-3.2c0.5-2.3,0.7-5.2,3.9-5.1c3.5,0.1,10.7,0.4,12.7,1.6c3.1,1.9,5.1,3,6.3,17.7
						C1319.2,262.4,1315,268.9,1308.6,269.7L1308.6,269.7z"/>
					<path id="Vector_8" class="st3" d="M1265.3,258.3c4.4,0,8-3.6,8-8c0-4.4-3.6-8-8-8c-4.4,0-8,3.6-8,8
						C1257.2,254.7,1260.8,258.3,1265.3,258.3z"/>
					<path id="Vector_9" class="st3" d="M1300,258.3c4.4,0,8-3.6,8-8c0-4.4-3.6-8-8-8c-4.4,0-8,3.6-8,8
						C1292,254.7,1295.6,258.3,1300,258.3z"/>
					<path id="Vector_10" class="st3" d="M1265.3,258.3c4.4,0,8-3.6,8-8c0-4.4-3.6-8-8-8c-4.4,0-8,3.6-8,8
						C1257.2,254.7,1260.8,258.3,1265.3,258.3z"/>
					<path id="Vector_11" class="st3" d="M1300,258.3c4.4,0,8-3.6,8-8c0-4.4-3.6-8-8-8c-4.4,0-8,3.6-8,8
						C1292,254.7,1295.6,258.3,1300,258.3z"/>
				</g>
			</g>
		</g>
	</g>
</g>
</svg>
