<?xml version="1.0" encoding="utf-8"?>
<!-- Generator: Adobe Illustrator 28.0.0, SVG Export Plug-In . SVG Version: 6.00 Build 0)  -->
<svg version="1.1" id="Ebene_1" xmlns="http://www.w3.org/2000/svg" xmlns:xlink="http://www.w3.org/1999/xlink" x="0px" y="0px"
	 viewBox="0 0 20 20.2" style="enable-background:new 0 0 20 20.2;" xml:space="preserve">
<style type="text/css">
	.st0{clip-path:url(#SVGID_00000104671574493049031430000009108064685099090097_);}
	.st1{fill:none;stroke:#FFFFFF;stroke-width:1.2185;stroke-miterlimit:10;}
</style>
<g>
	<defs>
		<rect id="SVGID_1_" width="20" height="20.2"/>
	</defs>
	<clipPath id="SVGID_00000005966774993360047600000004983072056627119531_">
		<use xlink:href="#SVGID_1_"  style="overflow:visible;"/>
	</clipPath>
	
		<g id="Ebene_1_00000089566915822201510660000006513164243709222031_" style="clip-path:url(#SVGID_00000005966774993360047600000004983072056627119531_);">
		<path id="Call" class="st1" d="M16.6,19.6h-0.2C12.6,19.1,9,17.5,6,14.8l-0.7-0.7C2.7,11.2,1,7.6,0.6,3.7C0.6,2.9,0.9,2.3,1.6,2
			l3.4-1.3c0.4-0.2,1,0,1.2,0.4l2.4,4.4c0.2,0.4,0.1,0.9-0.2,1.2L6.2,8.8C6.2,8.8,6.2,9,6.2,9.1c0.7,1,1.4,1.9,2.2,2.7
			c0.8,0.8,1.7,1.5,2.6,2.1c0.1,0.1,0.2,0.1,0.3,0l2.1-2.2c0.3-0.3,0.8-0.4,1.2-0.2l4.3,2.4c0.4,0.2,0.6,0.7,0.4,1.2L18,18.5
			C17.9,19.1,17.3,19.6,16.6,19.6z"/>
	</g>
</g>
</svg>
