<?xml version="1.0" encoding="utf-8"?>
<!-- Generator: Adobe Illustrator 28.0.0, SVG Export Plug-In . SVG Version: 6.00 Build 0)  -->
<svg version="1.1" id="Ebene_1" xmlns="http://www.w3.org/2000/svg" xmlns:xlink="http://www.w3.org/1999/xlink" x="0px" y="0px"
	 viewBox="0 0 43.5 42.5" style="enable-background:new 0 0 43.5 42.5;" xml:space="preserve">
<style type="text/css">
	.st0{fill:#222222;}
</style>
<g id="Gruppe_53" transform="translate(2.5 2.5)">
	<g id="Gruppe_54" transform="translate(0 0)">
		<g id="Rechteck_40">
			<path class="st0" d="M29.2,40H9.3C2.8,40-2.5,34.7-2.5,28.2V9.3c0-6.5,5.3-11.8,11.8-11.8h19.9C35.7-2.5,41,2.8,41,9.3v18.9
				C41,34.7,35.7,40,29.2,40z M9.3,2.5c-3.7,0-6.8,3.1-6.8,6.8v18.9C2.5,32,5.6,35,9.3,35h19.9C33,35,36,32,36,28.2V9.3
				c0-3.7-3.1-6.8-6.8-6.8H9.3z"/>
		</g>
		<g id="Ellipse_2">
			<path class="st0" d="M18.9,29c-5.6,0-10.2-4.6-10.2-10.2S13.3,8.6,18.9,8.6c5.6,0,10.2,4.6,10.2,10.2S24.5,29,18.9,29z
				 M18.9,13.6c-2.9,0-5.2,2.3-5.2,5.2S16,24,18.9,24c2.9,0,5.2-2.3,5.2-5.2S21.7,13.6,18.9,13.6z"/>
		</g>
		<g id="Pfad_85">
			<path class="st0" d="M30,6.2c1.3,0,2.4,1.1,2.4,2.4s-1.1,2.4-2.4,2.4s-2.4-1.1-2.4-2.4l0,0C27.5,7.3,28.6,6.2,30,6.2
				C30,6.2,30,6.2,30,6.2"/>
		</g>
	</g>
</g>
</svg>
