<?xml version="1.0" encoding="utf-8"?>
<!-- Generator: Adobe Illustrator 28.0.0, SVG Export Plug-In . SVG Version: 6.00 Build 0)  -->
<svg version="1.1" id="Ebene_1" xmlns="http://www.w3.org/2000/svg" xmlns:xlink="http://www.w3.org/1999/xlink" x="0px" y="0px"
	 viewBox="0 0 43.5 42.5" style="enable-background:new 0 0 43.5 42.5;" xml:space="preserve">
<style type="text/css">
	.st0{fill:#000222;}
</style>
<g>
	<g id="Gruppe_48">
		<path id="Pfad_80" class="st0" d="M9.1,4.3C6.8,4.3,5,6.1,5,8.4c0,0,0,0,0,0.1c0,2.3,1.8,4.1,4,4.1c0,0,0,0,0.1,0
			c2.3,0,4.1-1.8,4.1-4c0,0,0,0,0-0.1C13.2,6.2,11.3,4.4,9.1,4.3"/>
		<rect id="Rechteck_38" x="5.4" y="15.7" class="st0" width="7.1" height="22.5"/>
		<path id="Pfad_81" class="st0" d="M30.7,15.3c-2.6-0.1-5.1,0.9-6.9,2.8v-2.4h-7.1v22.5h7.1V24.3c0.7-1,1.8-1.7,3-1.9
			c1.7-0.4,3.5,0.5,4.2,2.1c0.4,0.8,0.5,1.6,0.4,2.4v11.2h7.1V26.8C38.6,17.9,36.3,15.3,30.7,15.3"/>
	</g>
</g>
</svg>
