<?xml version="1.0" encoding="utf-8"?>
<!-- Generator: Adobe Illustrator 28.0.0, SVG Export Plug-In . SVG Version: 6.00 Build 0)  -->
<svg version="1.1" id="Ebene_1" xmlns="http://www.w3.org/2000/svg" xmlns:xlink="http://www.w3.org/1999/xlink" x="0px" y="0px"
	 viewBox="0 0 43.5 42.5" style="enable-background:new 0 0 43.5 42.5;" xml:space="preserve">
<style type="text/css">
	.st0{fill:#222222;}
</style>
<g>
	<g id="Gruppe_55-2" transform="translate(0 0)">
		<path id="Pfad_86" class="st0" d="M39,11.1c0-0.2,0-0.2-0.2-0.2c-0.4,0-0.9,0-1.3-0.1c-1.6-0.2-6.8-3-7.7-7.5
			c-0.1-0.6-0.2-1.1-0.2-1.7c0-0.2,0-0.2-0.2-0.2h-0.1c-2,0-4.1,0-6.1,0c-0.4,0-0.4-0.1-0.4,0.4c0,8.9,0,17.7,0,26.5
			c0,2-1,3.9-2.7,5c-1.2,0.8-2.7,1-4.2,0.7c-0.5-0.1-0.9-0.3-1.3-0.4l-0.1-0.1c-0.1-0.1-0.3-0.2-0.5-0.3c-1.8-1.1-2.8-3.3-2.5-5.4
			c0.2-2.2,1.7-4,3.8-4.7c0.7-0.2,1.3-0.3,2-0.3c0.4,0,0.9,0.1,1.3,0.2c0.1,0,0.2,0,0.2-0.2c0-0.1,0-0.1,0-0.2
			c0-1.6-0.1-5.1-0.1-5.1c0-0.5,0-0.9,0-1.4c0-0.1-0.1-0.2-0.2-0.2C17.7,16,16.9,16,16.1,16c-4.6,0.3-8.6,3.2-10.5,7.3
			c-1.3,2.8-1.4,6-0.5,8.9c0.8,2.4,2.2,4.5,4.2,6.1c0.2,0.2,0.4,0.3,0.7,0.4l0.3,0.3c0.3,0.2,0.7,0.5,1,0.6c2.2,1.1,4.7,1.6,7.2,1.3
			c3.2-0.3,6.1-1.9,8.1-4.3c2-2.3,3-5.2,3-8.2c0-4.4,0-8.8,0-13.2c0-0.1-0.1-0.3,0.1-0.3c0.1,0,0.2,0.1,0.3,0.1
			c1.6,1.1,3.4,1.9,5.3,2.3c1.1,0.3,2.2,0.4,3.4,0.4c0.4,0,0.4,0,0.4-0.4C39.1,15.8,39,11.5,39,11.1"/>
	</g>
</g>
</svg>
