<?xml version="1.0" encoding="utf-8"?>
<!-- Generator: Adobe Illustrator 28.0.0, SVG Export Plug-In . SVG Version: 6.00 Build 0)  -->
<svg version="1.1" id="Ebene_1" xmlns="http://www.w3.org/2000/svg" xmlns:xlink="http://www.w3.org/1999/xlink" x="0px" y="0px"
	 viewBox="0 0 177.5 87.2" style="enable-background:new 0 0 177.5 87.2;" xml:space="preserve">
<style type="text/css">
	.st0{opacity:0.3;}
	.st1{fill-rule:evenodd;clip-rule:evenodd;fill:#FFFFFF;}
</style>
<g class="st0">
	<g id="Gruppe_19">
		<path id="Pfad_41" class="st1" d="M177.5,86.3c-0.2-0.1-0.4-0.3-0.4-0.5c-2.9-11.3-9.9-38.7-9.9-38.7h-6.1
			c0.1,0.2,0.2,0.5,0.1,0.7c-2.6,9.3-6.5,24.3-9.7,36.4c-1.6-3.3-3.6-7.5-6-10.5l0.6-0.5c1.2-0.7,2.2-1.6,3-2.7
			c2.1-2.4,2.6-5.7,1.3-8.6c-1.8-4.2-5.2-4.6-9.9-4.6h-8.6c0.3,0,0.6,0.4,0.6,0.7v27.5c0,0.3-0.2,0.7-0.5,0.7h6.6
			c-0.3,0-0.6-0.4-0.6-0.7v-8.9c1-0.3,1.4-0.4,2.6-0.8c1.3,1.4,2.5,3,3.5,4.7c1.2,1.7,2.8,4.5,1.7,5.7h11.6c-0.7-1.2-0.3-3,0-4.1
			c2.1-4.5,6.8-5.8,11.1-7.1c2.3,9.2,2.9,10.6,2.1,11.3L177.5,86.3L177.5,86.3z M144.8,67.4c-1.6,2.4-4.4,3.2-6.9,4.1v-9.8
			c2.1-0.1,6.4-0.4,7.2,1.7C145.7,64.7,145.6,66.2,144.8,67.4L144.8,67.4z M167.2,70.2c-2.5,0.7-5,1.5-7.4,2.4l4.3-16.1
			C164.1,56.5,166.4,66,167.2,70.2"/>
		<path id="Pfad_42" class="st1" d="M27.3,86.3c-0.2-0.1-0.4-0.3-0.4-0.5C24,74.5,17,47.1,17,47.1h-6.1c0.1,0.2,0.2,0.5,0.1,0.7
			c-2.6,9.3-6.6,24.6-9.8,36.7c-0.2,0.7-0.6,1.3-1.1,1.8h7c-0.7-1.2-0.3-3,0-4.1c2.1-4.5,6.8-5.8,11.1-7.1
			c2.3,9.2,2.9,10.6,2.1,11.3L27.3,86.3L27.3,86.3z M16.9,70.2c-2.5,0.7-5,1.5-7.4,2.4l4.3-16.1C13.8,56.4,16.1,65.9,16.9,70.2
			L16.9,70.2z"/>
		<path id="Pfad_43" class="st1" d="M91.5,86.3c-0.5-0.2-0.5-0.6-0.7-1.1c-3.2-9.2-5.1-18.9-8.2-27.9l-7.2-0.2
			c0.3,0.3,0.3,0.8,0.1,1.2c-2.8,8.9-5.7,18.5-8.6,27.2c0,0.3-0.2,0.6-0.5,0.8H73c-0.6-0.8-0.2-2.3,0.2-3.5c1.2-2.6,4.1-4.2,7.1-4.9
			c1-0.2,1.8-0.4,2.7-0.7c1.5,6,3,8.7,1.7,9.1H91.5L91.5,86.3z M81.8,73.1c-2.1,0.5-4.2,1.1-6.2,1.9c1.2-3.6,3.5-11,3.5-11
			L81.8,73.1L81.8,73.1z"/>
		<path id="Pfad_44" class="st1" d="M42.7,86.3v-5.1c0,0.3-0.4,0.6-0.7,0.6h-7V58c0-0.3,0.2-0.7,0.6-0.7H29c0.3,0,0.5,0.4,0.5,0.7
			v27.5c0,0.3-0.3,0.7-0.6,0.7L42.7,86.3"/>
		<path id="Pfad_45" class="st1" d="M44.9,57c1,0.1,2,0.3,2.9,0.6c5,1.8,8.1,5.3,11.9,9.3V58c0-0.3-0.2-0.7-0.6-0.7h6.3
			c-0.3,0-0.5,0.4-0.5,0.7v27.5c0,0.3,0.3,0.7,0.6,0.7H59c0.8-0.2,0.6-0.8,0.6-6.2c0-5.9-4.8-11.1-9.5-14.7v20.2
			c0,0.3,0.2,0.7,0.5,0.7h-6.4c0.3,0,0.6-0.4,0.6-0.7L44.9,57"/>
		<path id="Pfad_46" class="st1" d="M106.1,57.3v5.3c0-0.3-0.4-0.6-0.7-0.6h-6v23.5c0,0.3,0.2,0.7,0.5,0.7h-6.6
			c0.3,0,0.6-0.4,0.6-0.7V62.1h-6c-0.3,0-0.7,0.2-0.7,0.6v-5.3L106.1,57.3z"/>
		<path id="Pfad_47" class="st1" d="M107.4,76.4V58c0-0.3-0.2-0.7-0.5-0.7h6.6c-0.3,0-0.6,0.4-0.6,0.7c0,0.2,0,12.6,0,19.2
			c0,2.8,2.3,5.2,5.2,5.2c2.8,0,5.2-2.3,5.2-5.2l0,0l0,0V58.1c0-0.3-0.3-0.7-0.6-0.7h6.6c-0.3,0-0.5,0.4-0.5,0.7v18.4
			c0,7.8-4.8,10.7-10.7,10.7S107.4,84.2,107.4,76.4"/>
		<path id="Pfad_48" class="st1" d="M88.9,0C69.2,0,53.1,11.5,53.1,25.8l0,0c0,14.2,16,25.8,35.8,25.8s35.8-11.5,35.8-25.8
			S108.7,0,88.9,0 M121.6,24.6c-8.1,0.7-15.8,3.1-21.1,7c-1.4-0.3-2.9-0.6-4.4-0.8l0,0c5.7-4.7,14.8-8.5,24.9-9.5
			C121.3,22.3,121.5,23.4,121.6,24.6 M119.1,17.2L119.1,17.2c-6.1,1.6-12,4-17.5,7c-0.2-0.7-0.4-1.4-0.7-2c4.8-3.4,9.9-6.4,15.2-8.9
			C117.2,14.5,118.3,15.8,119.1,17.2 M112.1,10L112.1,10c-4.4,3.1-8.6,6.6-12.5,10.4c-0.5-0.5-1-1-1.6-1.5c3-4,6.2-7.9,9.6-11.5
			C109.2,8.2,110.7,9,112.1,10 M103.3,5.7L103.3,5.7c-2.5,4-4.8,8-7,12.1c-0.7-0.3-1.4-0.6-2.1-0.9c1.5-4.3,3.3-8.8,4.8-12.4
			C100.4,4.8,101.8,5.2,103.3,5.7 M91,3.5c1.5,0.1,2.9,0.2,4.3,0.4l0,0c-1,4.2-2,8.4-3,12.6c-0.7-0.1-1.5-0.2-2.2-0.3L91,3.5z
			 M86.9,3.5l0.9,12.7c-0.7,0-1.5,0.1-2.2,0.3c-1-4.2-1.9-8.4-3-12.6l0,0C84,3.7,85.5,3.5,86.9,3.5 M78.9,4.5
			c1.7,4.1,3.3,8.3,4.8,12.4c-0.7,0.2-1.4,0.5-2.1,0.9c-2.3-4.3-4.8-8.6-7-12.1C76,5.2,77.5,4.8,78.9,4.5 M70.2,7.4
			c3.5,3.6,6.7,7.5,9.6,11.5c-0.6,0.4-1.1,0.9-1.6,1.4c-3.9-3.8-8.1-7.3-12.5-10.4C67.2,9,68.7,8.2,70.2,7.4 M58.8,17.2
			c0.9-1.4,1.9-2.7,3.1-3.9c5.3,2.5,10.4,5.5,15.2,8.9c-0.3,0.6-0.6,1.3-0.7,2C70.8,21.1,64.9,18.7,58.8,17.2L58.8,17.2z M56.9,21.3
			c10.1,1,19.2,4.8,24.9,9.5l0,0c-1.5,0.2-3,0.5-4.4,0.8c-5.3-3.9-13-6.3-21.1-7C56.4,23.4,56.6,22.3,56.9,21.3 M56.4,27.8
			c6,0.2,11.8,1.9,17,4.8c-1.3,0.4-2.5,0.8-3.7,1.3c-3.9-1.8-8.2-2.9-12.6-3.1C56.8,29.9,56.5,28.9,56.4,27.8 M58.5,34
			c2.6,0.1,5.1,0.7,7.6,1.6l0,0c-1.5,0.8-3,1.6-4.4,2.6C60.5,36.9,59.4,35.5,58.5,34 M88.9,48.1c-3.2,0-6.5-0.3-9.7-1
			c6.2-2.5,13.1-2.5,19.3,0C95.4,47.8,92.2,48.1,88.9,48.1 M103.2,45.9c-8.8-4.7-19.5-4.7-28.3,0c-1.4-0.5-2.7-1-4.1-1.6l0,0l0,0
			l0,0c5.5-3.4,11.8-5.1,18.2-5c6.4-0.1,12.8,1.7,18.2,5C105.9,44.9,104.5,45.5,103.2,45.9 M110.4,42.6c-6.4-4.2-13.9-6.3-21.5-6.2
			c-7.6-0.1-15,2-21.4,6.1c-1.2-0.7-2.3-1.5-3.3-2.3l0,0C70.6,35.8,79.4,33,89,33s18.4,2.7,24.8,7.2
			C112.7,41.2,111.6,41.9,110.4,42.6 M116.2,38.2c-1.4-1-2.9-1.8-4.4-2.6l0,0c2.4-0.9,5-1.4,7.6-1.6
			C118.5,35.5,117.4,36.9,116.2,38.2 M120.8,30.9c-4.4,0.2-8.6,1.2-12.6,3.1c-1.2-0.5-2.4-0.9-3.7-1.3c5.2-2.9,11-4.6,17-4.8
			C121.4,28.9,121.1,29.9,120.8,30.9"/>
	</g>
</g>
</svg>
