<?xml version="1.0" encoding="utf-8"?>
<!-- Generator: Adobe Illustrator 28.0.0, SVG Export Plug-In . SVG Version: 6.00 Build 0)  -->
<svg version="1.1" id="Ebene_1" xmlns="http://www.w3.org/2000/svg" xmlns:xlink="http://www.w3.org/1999/xlink" x="0px" y="0px"
	 viewBox="0 0 236 43.3" style="enable-background:new 0 0 236 43.3;" xml:space="preserve">
<style type="text/css">
	.st0{opacity:0.3;}
	.st1{fill:#FFFFFF;}
</style>
<g id="Gruppe_18" transform="translate(0 0)" class="st0">
	<path id="Pfad_35" class="st1" d="M34.4,0.8L24.1,24.4L14.3,0.8H0v41.7h10.7V18.4l10.2,24.1h5.7l10.3-24.1v24.1h10.7V0.8H34.4z"/>
	<g id="Gruppe_17" transform="translate(0 0)">
		<g>
			<g id="Gruppe_16">
				<path id="Pfad_36" class="st1" d="M55.8,42.5V0.8h9.1c0.9,0.1,1.6,0.8,1.6,1.7v40.1H55.8z"/>
				<path id="Pfad_37" class="st1" d="M96.1,18.5h13.6c1,0,1.7,0.8,1.7,1.8c0,0,0,0.1,0,0.1V42c-4.7,0.9-9.4,1.4-14.2,1.4
					c-15.6,0-23.8-7.4-23.8-21.7C73.4,8.8,81.6,0,95.3,0c6,0,11.3,1.6,14.7,3.9l-4.2,7.2c-3.1-1.3-6.4-2.1-9.7-2.2
					c-7.9,0-11.5,5.2-11.5,12.8c0,8.1,4.3,13,12.1,13c1.6,0,3.1-0.1,4.7-0.3V27h-5.2V18.5z"/>
				<path id="Pfad_38" class="st1" d="M143.1,42.5L138.1,31c-1-2.3-1.7-3.5-3.9-3.5h-4.3v15h-10.5V2.5c0.1-0.9,0.8-1.6,1.6-1.7h14.8
					c8,0,14.9,1.7,14.9,12.1c0,4.7-2.6,9.4-7.4,10.4c2.4,0.8,4.8,3.9,6.1,7.2l4.8,12H143.1z M135.2,8.8h-5.3v10.5h5.2
					c3.1,0,5.6-1.7,5.6-5.6C140.8,9.6,138.3,8.8,135.2,8.8"/>
				<path id="Pfad_39" class="st1" d="M177.5,43.3c-13.7,0-20.9-9.6-20.9-21.7c0-12,7.2-21.6,20.9-21.6c12.8,0,20,9.6,20,21.6
					C197.6,33.7,190.3,43.3,177.5,43.3 M177.5,8.8c-5.6,0-9.6,4-9.6,12.8c0,8.9,4,12.9,9.6,12.9c4.8,0,8.8-4,8.8-12.9
					C186.3,12.9,182.3,8.8,177.5,8.8"/>
				<path id="Pfad_40" class="st1" d="M218.1,43.3c-7.1,0-13.6-2.5-16.5-4.5l4.8-8.4c2.7,1.6,7.8,4.1,12.6,4.1
					c2.7,0,6.1-0.5,6.1-3.5c0-2.8-3.8-3.7-8.8-5.1c-6-1.7-13-4.1-13-12.2C203.2,4.9,210.9,0,221,0c6.7,0,11.8,2.4,14.5,4.9l-5.8,6.6
					c-2.9-1.7-5.8-3-9.1-3c-4,0-6.2,1.5-6.2,3.7c0,2.2,2.9,3.3,6.5,4.4c6.4,2,15.1,4,15.1,12.3C236,37.4,229.1,43.3,218.1,43.3"/>
			</g>
		</g>
	</g>
</g>
</svg>
