<?xml version="1.0" encoding="utf-8"?>
<!-- Generator: Adobe Illustrator 28.0.0, SVG Export Plug-In . SVG Version: 6.00 Build 0)  -->
<svg version="1.1" id="Ebene_1" xmlns="http://www.w3.org/2000/svg" xmlns:xlink="http://www.w3.org/1999/xlink" x="0px" y="0px"
	 viewBox="0 0 238 55.4" style="enable-background:new 0 0 238 55.4;" xml:space="preserve">
<style type="text/css">
	.st0{opacity:0.3;}
	.st1{fill:#FFFFFF;}
</style>
<g class="st0">
	<g>
		<g id="Gruppe_14">
			<path id="Pfad_26" class="st1" d="M229.3,35.4c2-2,5.1-2,7.1,0l0,0c2,1.8,2.1,4.9,0.2,6.9c-0.1,0.1-0.1,0.2-0.2,0.2
				c-2,2-5.1,2-7.1,0l0,0C227.3,40.6,227.3,37.4,229.3,35.4C229.2,35.4,229.3,35.4,229.3,35.4"/>
			<path id="Pfad_27" class="st1" d="M196.8,39.8c3.3,3.1,7.8,4.8,12.3,4.6c4.6,0.1,9.1-1.7,12.4-4.9c3.6-3.4,5-8.4,5-14.8V0.2h-9.3
				v14.2c-2.5-2.3-6.1-2.9-8.6-2.9c-4.4-0.1-8.8,1.6-11.9,4.7c-3.3,3-5.2,7.3-5.1,11.8C191.6,32.5,193.5,36.8,196.8,39.8
				 M203.4,22.2c3.2-3.2,8.4-3.2,11.6,0c1.6,1.5,2.4,3.7,2.4,5.9s-0.8,4.3-2.4,5.8c-3.1,3.2-8.3,3.2-11.5,0.1l-0.1-0.1
				c-1.6-1.5-2.4-3.6-2.4-5.8C201,25.8,201.8,23.7,203.4,22.2"/>
			<path id="Pfad_28" class="st1" d="M229.2,35.4c2-2,5.1-2,7.1,0l0,0c2,1.8,2.1,4.9,0.2,6.9c-0.1,0.1-0.1,0.2-0.2,0.2
				c-2,2-5.1,2-7.1,0l0,0C227.3,40.6,227.2,37.4,229.2,35.4L229.2,35.4"/>
			<path id="Pfad_29" class="st1" d="M38.9,0h9.3v31.8c0,2.8,1.1,4.1,3.6,4.1c0.8,0,1.5-0.1,2.2-0.2v8.2c-1.4,0.3-2.9,0.5-4.4,0.4
				c-7.2,0-10.7-3.7-10.7-11C38.9,33.3,38.9,0,38.9,0z"/>
			<path id="Pfad_30" class="st1" d="M60.6,16.2c2.9-3.1,6.9-4.8,11.2-4.7c4.7,0,8.4,1.9,9.3,4.7V12h9.3v20.4c0,2.5,0.6,3.5,2.3,3.5
				c0.5,0,1-0.1,1.6-0.1v7.7C92.8,43.9,91.4,44,90,44c-1.8,0.1-3.5-0.3-5.1-1.1c-1.3-0.8-2.3-2-2.8-3.4C80,42.6,76.6,44,71.7,44
				c-4.2,0.1-8.3-1.6-11.2-4.7c-2.9-3.2-4.5-7.3-4.4-11.7C56,23.5,57.6,19.3,60.6,16.2 M79.2,33.3c1.6-1.4,2.5-3.5,2.4-5.6
				c0-2.1-0.9-4.1-2.4-5.5c-1.5-1.5-3.6-2.4-5.8-2.3c-2.1-0.1-4.2,0.8-5.7,2.3c-1.5,1.4-2.4,3.5-2.3,5.5c0,2.1,0.8,4.1,2.3,5.6
				s3.6,2.3,5.7,2.2C75.5,35.6,77.6,34.8,79.2,33.3"/>
			<path id="Pfad_31" class="st1" d="M98.3,43.4V12h9.3v3.9c1.3-2.7,4.8-4.6,9-4.6c7.5,0,11.9,4.9,11.9,13v7.9
				c0,2.4,0.5,3.3,2.1,3.3h0.6l0.4-0.1v7.8c-1.3,0.4-2.7,0.5-4,0.4c-5.5,0-8.3-3-8.3-9v-9.3c0-3.7-1.9-5.9-5.6-5.9
				c-3.3-0.1-6,2.5-6.1,5.8c0,0.2,0,0.3,0,0.5v17.6L98.3,43.4L98.3,43.4z"/>
			<path id="Pfad_32" class="st1" d="M136.9,20.4h-4.1V12h4.1V0h9v12h7v8.4h-7v11.2c0,3,1.2,4.2,4,4.2c0.8,0,1.6-0.1,2.4-0.2v8.2
				c-1.5,0.3-3,0.5-4.5,0.4c-7.2,0-10.8-3.7-10.8-11.2L136.9,20.4z"/>
			<path id="Pfad_33" class="st1" d="M155.6,27.7c-0.2-4.5,1.6-8.8,4.8-11.9c3.3-3.1,7.7-4.7,12.2-4.5c8.6-0.3,15.8,6.4,16.1,15
				c0,0.3,0,0.7,0,1c0,1.1-0.1,2.1-0.1,3h-23.7c0.2,3.7,3.4,6.2,8.3,6.2c2.9,0,5.6-1.1,7.7-3.1l5.4,5.2c-3.5,3.7-8.4,5.8-13.5,5.7
				c-5.2,0-9.3-1.5-12.5-4.4c-3.2-3-4.7-6.9-4.7-11.8V27.7z M179.4,24.1c0-2.9-3.1-5.2-6.8-5.2c-4,0-7.4,2.3-7.6,5.2
				C165,24.1,179.4,24.1,179.4,24.1z"/>
			<path id="Pfad_34" class="st1" d="M29.8,15.8c-3.3-3.1-7.8-4.8-12.3-4.6c-4.6-0.1-9.1,1.7-12.4,4.9C1.5,19.4,0,24.5,0,30.9v24.5
				h9.3V41.2c2.5,2.3,6.1,2.9,8.6,2.9c4.4,0.1,8.8-1.6,11.9-4.7c3.3-3,5.2-7.3,5.1-11.8C35,23.1,33.1,18.8,29.8,15.8 M23.2,33.4
				c-1.5,1.6-3.6,2.4-5.8,2.4s-4.3-0.8-5.8-2.4c-1.6-1.5-2.4-3.7-2.4-5.9s0.8-4.3,2.4-5.8c1.5-1.6,3.6-2.5,5.8-2.4
				c2.2,0,4.3,0.8,5.8,2.4c1.6,1.5,2.4,3.6,2.4,5.8C25.6,29.8,24.8,31.9,23.2,33.4"/>
		</g>
	</g>
</g>
</svg>
