<?xml version="1.0" encoding="utf-8"?>
<!-- Generator: Adobe Illustrator 28.0.0, SVG Export Plug-In . SVG Version: 6.00 Build 0)  -->
<svg version="1.1" id="Ebene_1" xmlns="http://www.w3.org/2000/svg" xmlns:xlink="http://www.w3.org/1999/xlink" x="0px" y="0px"
	 viewBox="0 0 139.9 108.8" style="enable-background:new 0 0 139.9 108.8;" xml:space="preserve">
<style type="text/css">
	.st0{opacity:0.3;}
	.st1{fill:#FFFFFF;}
</style>
<g id="Gruppe_13" transform="translate(0 0)" class="st0">
	<g>
		<g>
			<g id="Gruppe_12" transform="translate(0 0)">
				<path id="Pfad_14" class="st1" d="M114,25.7c-0.2-4.5-2.3-8.8-5.7-11.8c-4.9-4-12-4.7-20.1-1.8c-0.2,0.1-0.4,0.2-0.6,0.2
					c-0.2-0.3-0.4-0.7-0.6-1C82.8,4,76.8,0,70.5,0S58.3,4,54,11.3c-0.3,0.5-0.6,1.1-0.9,1.7c-0.8-0.3-1.5-0.6-2.2-0.9
					c-8.1-2.8-15.3-2.2-20.1,1.8c-3.3,2.7-5.3,6.8-5.7,11.8c-1,9.5,3.7,21.3,12.3,31.3c6.4,7.5,14.2,13.1,21.9,15.9
					c3,1.1,6.2,1.7,9.4,1.8h1.6c3.2-0.1,6.4-0.6,9.4-1.8c7.7-2.7,15.6-8.4,21.9-15.9C110.2,46.9,114.9,35.2,114,25.7 M29,26
					c0.1-3.5,1.7-6.7,4.3-9c2.3-1.8,5.2-2.7,8.2-2.6c2.8,0,5.5,0.6,8.1,1.6c0.6,0.2,1.3,0.5,1.8,0.7c0.6,0.3,1.3,0.5,1.8,0.8
					l1.8,0.9c4.4,2.4,8.4,5.5,11.9,9c0.5,0.5,0.9,0.9,1.4,1.5c0.5,0.5,0.9,1,1.4,1.5c0,0.1,0.1,0.1,0.1,0.2
					c7.8,9.1,12.3,20,11.5,28.4c-0.1,3.5-1.7,6.7-4.3,9c-2,1.6-4.4,2.5-7,2.6h-0.4c-2.6,0-5.2-0.3-7.7-1.1c-0.4-0.1-0.8-0.3-1.2-0.4
					c-0.2-0.1-0.4-0.1-0.6-0.2C59,68.5,58,68,56.9,67.5c-0.2-0.1-0.4-0.2-0.7-0.3c-6-3.2-11.4-7.5-15.8-12.7
					C32.7,45.2,28.3,34.3,29,26 M57.4,13.3C61,7.3,65.7,4,70.5,4c4.9,0,9.5,3.3,13.1,9.3c0.1,0.2,0.2,0.3,0.3,0.5
					c0.3,0.6,0.7,1.2,1,1.8s0.6,1.2,0.9,1.8c2.6,6.3,3.9,13,3.8,19.8c0.1,7.2-1.4,14.3-4.3,20.9c0.4-9.3-4.2-20.6-12.5-30.3
					c-0.1-0.2-0.3-0.3-0.5-0.5c-0.5-0.5-0.9-1-1.4-1.5s-0.9-1-1.4-1.5c-3.8-3.9-8.1-7.1-12.8-9.7C56.9,14.2,57.1,13.8,57.4,13.3
					 M85.6,65.6c0.5-0.8,1.1-1.5,1.6-2.3c4.2-7,6.4-16.1,6.4-26c0.1-7.3-1.3-14.6-4.1-21.4c0.1,0,0.1,0,0.2-0.1
					c2.6-0.9,5.3-1.5,8.1-1.5c2.9-0.1,5.8,0.8,8.2,2.6c2.4,2,3.9,5.2,4.3,9c0.8,8.4-3.7,19.3-11.5,28.4
					C94.9,58.7,90.5,62.5,85.6,65.6"/>
				<path id="Pfad_15" class="st1" d="M11.6,63.2L10,60.6l-8.1,4.9L0,62.2l8.1-4.9l-1.6-2.6l3.1-1.8l5.2,8.5L11.6,63.2z"/>
				<path id="Pfad_16" class="st1" d="M9.4,65.4c3-2.3,7.3-1.8,9.6,1.2l0,0c2.3,2.9,1.9,7.1-1,9.5c-0.1,0-0.1,0.1-0.2,0.1
					c-3.1,2.3-7.4,1.6-9.6-1.5C6.1,71.8,6.6,67.7,9.4,65.4 M15.7,73.3c1.4-1.1,1.7-3.1,0.6-4.5s-3.1-1.7-4.5-0.6
					c-1.4,1-1.7,3-0.7,4.4c0,0,0,0.1,0.1,0.1c1,1.4,2.9,1.7,4.3,0.7C15.5,73.4,15.6,73.4,15.7,73.3"/>
				<path id="Pfad_17" class="st1" d="M19,77.7c2.5-2.8,6.8-3,9.6-0.5l0.1,0.1c2.8,2.5,3.1,6.9,0.6,9.7c-2.5,2.8-6.7,3.1-9.5,0.6
					c-0.1-0.1-0.2-0.1-0.2-0.2C16.7,85,16.4,80.6,19,77.7C18.9,77.8,18.9,77.7,19,77.7 M26.5,84.4c1.2-1.2,1.2-3.1,0-4.3
					c-0.1-0.1-0.1-0.1-0.2-0.2c-1.3-1.2-3.3-1.1-4.5,0.2c-1.2,1.3-1.1,3.3,0.2,4.5C23.3,85.8,25.3,85.7,26.5,84.4"/>
				<path id="Pfad_18" class="st1" d="M45.8,97.2c-1.5,3.1-5.2,4.3-8.3,2.8c-0.2-0.1-0.4-0.2-0.5-0.3c-3.3-1.6-4.7-5.6-3-9
					c0.1-0.1,0.1-0.3,0.2-0.4c1.6-3.3,5.6-4.6,8.9-2.9c0.1,0.1,0.3,0.1,0.4,0.2c2.1,1.1,3.4,3.1,3.6,5.4l-3.7,0.1
					c-0.1-1-0.8-1.8-1.7-2.2c-1.6-0.8-3.6-0.1-4.4,1.6c-0.7,1.6-0.1,3.4,1.4,4.3c1.3,0.7,2.2,0.6,2.9,0l-2.4-1.4l1.6-2.8l5.8,3.2
					L45.8,97.2z"/>
				<path id="Pfad_19" class="st1" d="M47.6,97.5c1.1-3.6,4.9-5.6,8.4-4.4c0.1,0,0.1,0,0.2,0.1c3.6,1.1,5.7,4.9,4.6,8.5v0.1
					c-1.1,3.6-4.9,5.5-8.4,4.4c-0.1,0-0.1,0-0.2-0.1C48.6,105,46.5,101.2,47.6,97.5C47.5,97.6,47.6,97.6,47.6,97.5 M57.2,100.7
					c0.6-1.6-0.2-3.3-1.8-3.9c-0.1,0-0.1-0.1-0.2-0.1c-1.6-0.6-3.3,0.2-3.9,1.8c0,0.1-0.1,0.2-0.1,0.3c-0.6,1.6,0.2,3.3,1.8,3.9
					c0.1,0,0.1,0.1,0.2,0.1c1.6,0.6,3.4-0.3,3.9-1.9C57.2,100.8,57.2,100.7,57.2,100.7"/>
				<path id="Pfad_20" class="st1" d="M62.7,101.9c0-3.8,3.1-6.9,6.9-6.9c3.8,0,6.9,3.1,6.9,6.9s-3.1,6.9-6.9,6.9
					c-3.7,0.1-6.8-2.9-6.9-6.7C62.7,102.1,62.7,102,62.7,101.9 M72.9,102c0-1.8-1.4-3.2-3.2-3.2c-1.8,0-3.2,1.4-3.2,3.2
					c0,1.8,1.4,3.2,3.2,3.2l0,0C71.4,105.2,72.8,103.8,72.9,102"/>
				<path id="Pfad_21" class="st1" d="M90.2,98.1c1.2,3.3-0.6,6.9-3.9,8.1c-0.1,0-0.1,0.1-0.2,0.1l-5.2,1.7l-4-12.4l5.2-1.7
					c3.3-1.1,6.8,0.6,7.9,3.8C90.1,97.8,90.1,98,90.2,98.1 M86.6,99.2c-0.3-1.4-1.7-2.3-3.1-2c-0.1,0-0.2,0-0.3,0.1l-1.5,0.5
					l1.8,5.5l1.5-0.5c1.4-0.4,2.2-1.9,1.7-3.3C86.6,99.4,86.6,99.3,86.6,99.2"/>
				<path id="Pfad_22" class="st1" d="M102.3,88l-2.6,1.6l4.8,8.2l-3.2,1.8l-4.8-8.2L93.9,93L92,89.9l8.6-5L102.3,88z"/>
				<path id="Pfad_23" class="st1" d="M104.6,90.3c-2.3-2.9-1.9-7.1,1-9.5c0.1,0,0.1-0.1,0.2-0.1c2.9-2.4,7.2-2,9.6,0.9l0.1,0.1
					c2.3,2.9,1.9,7.1-1,9.5c-0.1,0-0.1,0.1-0.2,0.1C111.4,93.7,107.1,93.3,104.6,90.3L104.6,90.3 M112.4,83.9
					c-1.1-1.4-3.1-1.6-4.5-0.5s-1.6,3.1-0.5,4.5s3.1,1.6,4.5,0.5l0,0C113.3,87.3,113.5,85.3,112.4,83.9"/>
				<path id="Pfad_24" class="st1" d="M128.3,67.1c2.7,2.1,3.2,6,1.1,8.7c-0.1,0.1-0.2,0.3-0.4,0.4c-2.3,3-6.7,3.5-9.6,1.1
					s-3.5-6.7-1.1-9.6c0-0.1,0.1-0.1,0.1-0.2c1.4-1.8,3.7-2.7,6-2.4l-0.7,3.6c-1-0.1-1.9,0.4-2.5,1.2c-1.1,1.3-1,3.2,0.3,4.3
					c0.1,0.1,0.1,0.1,0.2,0.2c1.3,1.2,3.2,1.1,4.4-0.1c0.1-0.1,0.2-0.2,0.2-0.3c0.8-0.8,1-1.9,0.6-2.9l-1.8,2.1l-2.4-2l4.3-5.1
					L128.3,67.1z"/>
				<path id="Pfad_25" class="st1" d="M129,65.7c-3.1-2.2-3.9-6.5-1.7-9.7c2.2-3.1,6.5-3.9,9.7-1.7c3.1,2.2,3.9,6.5,1.7,9.7l0,0
					C136.5,67.2,132.2,68,129,65.7C129,65.8,129,65.8,129,65.7 M134.8,57.5c-1.5-1-3.5-0.7-4.5,0.8s-0.7,3.5,0.8,4.5
					s3.5,0.7,4.5-0.8l0,0C136.6,60.5,136.3,58.6,134.8,57.5C134.9,57.5,134.8,57.5,134.8,57.5"/>
			</g>
		</g>
	</g>
</g>
</svg>
