<?xml version="1.0" encoding="utf-8"?>
<!-- Generator: Adobe Illustrator 28.0.0, SVG Export Plug-In . SVG Version: 6.00 Build 0)  -->
<svg version="1.1" id="Ebene_1" xmlns="http://www.w3.org/2000/svg" xmlns:xlink="http://www.w3.org/1999/xlink" x="0px" y="0px"
	 viewBox="0 0 245 73" style="enable-background:new 0 0 245 73;" xml:space="preserve">
<style type="text/css">
	.st0{fill-rule:evenodd;clip-rule:evenodd;fill:#FFFFFF;}
</style>
<g>
	<path id="Rechteck_36" d="M8,0h229c4.4,0,8,3.6,8,8v57c0,4.4-3.6,8-8,8H8c-4.4,0-8-3.6-8-8V8C0,3.6,3.6,0,8,0z"/>
	<path id="Pfad_60" class="st0" d="M54.6,34.4c0-3.6,1.9-7,5-8.8c-2-2.8-5.1-4.5-8.5-4.6c-3.6-0.4-7,2.1-8.9,2.1
		c-1.9,0-4.7-2.1-7.7-2c-4,0.1-7.6,2.3-9.5,5.8c-4.1,7.1-1,17.6,2.9,23.4c2,2.8,4.3,6,7.3,5.9c3-0.1,4.1-1.9,7.6-1.9
		c3.5,0,4.6,1.9,7.7,1.8c3.2-0.1,5.2-2.8,7.1-5.7c1.4-2,2.5-4.2,3.2-6.6C57,42.2,54.6,38.5,54.6,34.4L54.6,34.4z M48.8,17.1
		c1.7-2.1,2.6-4.7,2.4-7.4c-2.6,0.3-5.1,1.5-6.8,3.5c-1.7,2-2.6,4.5-2.4,7.2C44.5,20.4,47.1,19.2,48.8,17.1L48.8,17.1z"/>
	<g id="Gruppe_37" transform="translate(77.204 10.688)">
		<path id="Pfad_61" class="st0" d="M20,44.4h-4l-2.2-7H6l-2.1,7H0l7.6-23.7h4.7L20,44.4z M13.1,34.5l-2-6.2
			c-0.2-0.6-0.6-2.1-1.2-4.5H9.8c-0.2,1-0.6,2.5-1.1,4.5l-2,6.2H13.1z M39.6,35.6c0.1,2.5-0.7,5-2.4,6.9C35.9,44,34,44.8,32,44.8
			c-1.9,0.2-3.8-0.8-4.9-2.4h-0.1v9h-3.8V32.9c0-1.8,0-3.7-0.1-5.6h3.3l0.2,2.7h0.1c1.2-2,3.4-3.2,5.8-3.1c2,0,3.8,0.9,5,2.4
			C39,31.1,39.7,33.4,39.6,35.6z M35.7,35.8c0.1-1.5-0.3-2.9-1.1-4.1c-0.7-1.1-2-1.7-3.3-1.7c-0.9,0-1.8,0.3-2.5,0.9
			c-0.8,0.6-1.3,1.5-1.5,2.4c-0.1,0.4-0.2,0.8-0.2,1.2v2.8c0,1.2,0.4,2.3,1.1,3.1c0.7,0.8,1.8,1.3,3,1.3c1.3,0.1,2.6-0.6,3.3-1.7
			C35.4,38.8,35.8,37.3,35.7,35.8z M59.2,35.6c0.1,2.5-0.7,5-2.4,6.9c-1.3,1.5-3.2,2.3-5.2,2.2c-1.9,0.2-3.8-0.8-4.8-2.4h-0.1v9
			h-3.8V32.9c0-1.8,0-3.7-0.1-5.6h3.3l0.2,2.7h0.1c2-3.1,6.2-4,9.3-2c0.5,0.4,1,0.8,1.5,1.3C58.6,31.1,59.3,33.4,59.2,35.6
			L59.2,35.6z M55.4,35.8c0.1-1.5-0.3-2.9-1.1-4.1c-0.7-1.1-2-1.7-3.3-1.7c-0.9,0-1.8,0.3-2.5,0.9c-0.8,0.6-1.3,1.5-1.5,2.4
			c-0.1,0.4-0.2,0.8-0.2,1.2v2.8c0,1.2,0.4,2.3,1.1,3.1c0.7,0.8,1.8,1.3,3,1.3c1.3,0.1,2.6-0.6,3.3-1.7C55,38.8,55.4,37.3,55.4,35.8
			L55.4,35.8z M81.2,37.7c0.1,1.9-0.7,3.7-2.1,4.9c-1.8,1.5-4.1,2.2-6.4,2.1c-2.1,0.1-4.3-0.4-6.1-1.5l0.9-3.2
			c1.6,1,3.5,1.5,5.5,1.5c1.2,0.1,2.4-0.3,3.3-1c0.8-0.6,1.2-1.6,1.2-2.6c0-0.9-0.3-1.8-1-2.4c-1-0.8-2.1-1.5-3.3-1.8
			C69,32.2,66.9,30,66.9,27c0-1.8,0.8-3.6,2.2-4.8c1.6-1.3,3.7-2,5.8-1.9c1.9-0.1,3.7,0.3,5.4,1.1l-0.9,3.1c-1.4-0.7-3-1.1-4.5-1.1
			c-1.1-0.1-2.2,0.3-3.1,1c-0.6,0.5-1,1.3-0.9,2.1c0,0.9,0.4,1.8,1.1,2.3c1,0.8,2.2,1.4,3.4,1.8c1.7,0.6,3.2,1.6,4.5,2.9
			C80.7,34.8,81.2,36.2,81.2,37.7L81.2,37.7z M93.7,30.2h-4.2v8.3c0,2.1,0.7,3.2,2.2,3.2c0.6,0,1.1,0,1.7-0.2l0.1,2.9
			c-1,0.3-1.9,0.5-2.9,0.4c-1.3,0.1-2.6-0.4-3.5-1.4c-0.8-0.9-1.3-2.4-1.3-4.6v-8.6h-2.5v-2.8h2.5v-3.1l3.7-1.1v4.2h4.2V30.2z
			 M112.6,35.7c0.1,2.4-0.7,4.7-2.2,6.5c-1.6,1.7-3.9,2.7-6.3,2.6c-2.3,0.1-4.5-0.8-6-2.5c-1.5-1.7-2.3-4-2.2-6.3
			c-0.1-2.4,0.7-4.7,2.3-6.5c1.6-1.7,3.9-2.6,6.2-2.5c2.3-0.1,4.5,0.8,6,2.5C111.9,31.2,112.7,33.4,112.6,35.7L112.6,35.7z
			 M108.6,35.8c0-1.4-0.3-2.8-1-4.1c-0.7-1.3-2-2.1-3.4-2c-1.5,0-2.8,0.8-3.5,2c-0.7,1.3-1.1,2.7-1,4.1c0,1.4,0.3,2.8,1,4.1
			c1,1.9,3.4,2.6,5.3,1.6c0.7-0.4,1.2-0.9,1.6-1.6C108.3,38.7,108.7,37.3,108.6,35.8z M124.9,30.6c-0.4-0.1-0.8-0.1-1.2-0.1
			c-1.2-0.1-2.4,0.5-3.1,1.5c-0.7,1-1,2.2-0.9,3.4v9h-3.8l0-11.7c0-2,0-3.8-0.1-5.4h3.3l0.1,3.3h0.1c0.4-1.1,1-2,1.9-2.7
			c0.8-0.6,1.8-0.9,2.7-0.9c0.3,0,0.6,0,0.9,0.1L124.9,30.6z M141.9,35c0,0.6,0,1.2-0.1,1.7h-11.4c0,1.5,0.6,2.9,1.7,3.9
			c1.1,0.8,2.4,1.3,3.7,1.2c1.6,0,3.1-0.3,4.6-0.8l0.6,2.6c-1.8,0.7-3.8,1.1-5.7,1.1c-2.3,0.1-4.6-0.7-6.2-2.3
			c-1.6-1.7-2.4-4-2.3-6.3c-0.1-2.3,0.7-4.6,2.1-6.4c1.4-1.8,3.7-2.8,6-2.7c2.2-0.1,4.3,0.9,5.6,2.7C141.4,31.3,141.9,33.1,141.9,35
			L141.9,35z M138.2,34.1c0-1-0.2-2-0.7-2.9c-0.6-1-1.8-1.7-3-1.6c-1.2,0-2.3,0.6-3,1.5c-0.6,0.9-1,1.9-1.1,2.9L138.2,34.1
			L138.2,34.1z"/>
		<g id="Gruppe_36" transform="translate(2.252 0)">
			<path id="Pfad_62" class="st0" d="M6.6,12.2H0V0.6h1.9v10.1h4.7V12.2z"/>
			<path id="Pfad_63" class="st0" d="M15.4,12.2h-1.7l-0.1-1h-0.1C13,12,12,12.5,11.1,12.4c-0.7,0-1.4-0.2-1.9-0.8
				c-0.4-0.5-0.7-1.1-0.7-1.7c0-1,0.5-1.9,1.3-2.3c1.1-0.6,2.4-0.9,3.6-0.8V6.7c0-1.1-0.6-1.7-1.7-1.7c-0.8,0-1.5,0.2-2.2,0.6
				L9.1,4.4C10,3.9,11,3.6,12,3.7c2.2,0,3.3,1.2,3.3,3.5v3.1C15.3,10.9,15.3,11.6,15.4,12.2z M13.5,9.4V8.1c-2.1,0-3.1,0.5-3.1,1.7
				c0,0.4,0.1,0.7,0.4,1c0.2,0.2,0.6,0.3,0.9,0.3c0.4,0,0.8-0.1,1.1-0.4c0.3-0.2,0.6-0.6,0.6-1C13.5,9.6,13.5,9.5,13.5,9.4z
				 M26,12.2h-1.7l-0.1-1.3h-0.1c-0.5,1-1.6,1.6-2.7,1.5c-1,0-1.9-0.4-2.5-1.2c-0.7-0.9-1-2-1-3.1c-0.1-1.2,0.3-2.4,1.1-3.3
				c0.6-0.8,1.6-1.2,2.6-1.2C22.6,3.6,23.5,4,24,4.8h0V0h1.9v10C25.9,10.8,25.9,11.5,26,12.2L26,12.2z M24.1,8.7V7.3
				c0-0.2,0-0.4-0.1-0.6c-0.1-0.4-0.3-0.8-0.7-1.1c-0.3-0.3-0.8-0.5-1.2-0.5c-0.7,0-1.3,0.3-1.6,0.8c-0.4,0.6-0.6,1.4-0.6,2.1
				c0,0.7,0.2,1.4,0.6,2c0.4,0.5,1,0.8,1.6,0.8c0.6,0,1.1-0.2,1.5-0.7C23.9,9.8,24.1,9.3,24.1,8.7z M36.1,7.6c0,0.3,0,0.6-0.1,0.8
				h-5.6c0,0.7,0.3,1.4,0.8,1.9c0.5,0.4,1.2,0.6,1.8,0.6c0.8,0,1.5-0.1,2.3-0.4l0.3,1.3c-0.9,0.4-1.9,0.5-2.8,0.5
				c-1.1,0.1-2.2-0.4-3.1-1.1c-0.8-0.8-1.2-1.9-1.1-3.1c0-1.1,0.3-2.3,1-3.2c0.7-0.9,1.8-1.4,2.9-1.3c1.1-0.1,2.1,0.4,2.7,1.3
				C35.9,5.8,36.2,6.7,36.1,7.6L36.1,7.6z M34.4,7.2c0-0.5-0.1-1-0.4-1.4c-0.3-0.5-0.9-0.8-1.5-0.8c-0.6,0-1.1,0.3-1.5,0.8
				c-0.3,0.4-0.5,0.9-0.6,1.4L34.4,7.2z M46.1,12.2h-1.9V7.4c0-1.5-0.6-2.2-1.7-2.2c-0.5,0-1,0.2-1.3,0.6c-0.3,0.4-0.5,0.9-0.5,1.4
				v5h-1.9v-6c0-0.7,0-1.5-0.1-2.4h1.6l0.1,1.3h0c0.2-0.4,0.6-0.8,1-1c0.5-0.3,1.1-0.5,1.7-0.5c0.7,0,1.4,0.3,2,0.8
				c0.7,0.8,1,1.8,1,2.8L46.1,12.2L46.1,12.2z M56.5,1.3c0,0.3-0.1,0.6-0.3,0.8c-0.2,0.2-0.5,0.3-0.8,0.3c-0.3,0-0.6-0.1-0.8-0.3
				c-0.2-0.2-0.3-0.5-0.3-0.8c0-0.3,0.1-0.6,0.3-0.8c0.5-0.4,1.2-0.4,1.6,0C56.4,0.8,56.5,1,56.5,1.3z M56.3,12.2h-1.9V3.8h1.9V12.2
				z M71.6,12.2h-1.8V7.5c0-1.5-0.5-2.3-1.6-2.3c-0.5,0-0.9,0.2-1.2,0.6c-0.3,0.4-0.5,0.9-0.5,1.3v5.1h-1.8V7.3
				c0-0.5-0.1-1.1-0.4-1.5c-0.3-0.4-0.7-0.6-1.1-0.6c-0.5,0-1,0.2-1.2,0.6c-0.3,0.4-0.5,0.9-0.5,1.4v5h-1.8v-6c0-0.7,0-1.5-0.1-2.4
				h1.6l0.1,1.3h0.1c0.5-0.9,1.5-1.5,2.6-1.4c1-0.1,2,0.6,2.3,1.6h0c0.2-0.4,0.6-0.8,1-1.1c0.5-0.3,1.1-0.5,1.7-0.5
				c0.7,0,1.4,0.3,1.8,0.8c0.7,0.8,1,1.8,0.9,2.8L71.6,12.2L71.6,12.2z"/>
		</g>
	</g>
</g>
</svg>
