<?xml version="1.0" encoding="utf-8"?>
<!-- Generator: Adobe Illustrator 28.0.0, SVG Export Plug-In . SVG Version: 6.00 Build 0)  -->
<svg version="1.1" id="Ebene_1" xmlns="http://www.w3.org/2000/svg" xmlns:xlink="http://www.w3.org/1999/xlink" x="0px" y="0px"
	 viewBox="0 0 245 73" style="enable-background:new 0 0 245 73;" xml:space="preserve">
<style type="text/css">
	.st0{fill:#FFFFFF;}
	.st1{fill:#EA4435;}
	.st2{fill:#F9BC15;}
	.st3{fill:#547DBF;}
	.st4{fill:#33A851;}
</style>
<g>
	<g id="Gruppe_41">
		<path id="Pfad_64" d="M235.3,72.6H9.7c-5,0-9-4-9-9V9.4c0-5,4-9,9-9h225.7c5,0,9,4,9,9v54.2C244.3,68.6,240.3,72.6,235.3,72.6"/>
		<path id="Pfad_66" class="st0" d="M123.6,39.7c-4.2,0-7.7,3.5-7.6,7.7c0,4.2,3.5,7.7,7.7,7.6c4.2,0,7.6-3.4,7.7-7.7
			c0.1-4.2-3.3-7.6-7.5-7.7C123.8,39.7,123.7,39.7,123.6,39.7 M123.6,52c-2.6,0.2-4.8-1.7-5-4.3c-0.2-2.6,1.7-4.8,4.3-5
			s4.8,1.7,5,4.3c0,0.1,0,0.2,0,0.3c0.1,2.5-1.8,4.5-4.2,4.7C123.7,52,123.7,52,123.6,52 M106.8,39.7c-4.2,0-7.7,3.5-7.6,7.7
			s3.5,7.7,7.7,7.6c4.2,0,7.6-3.4,7.6-7.7c0.1-4.2-3.3-7.6-7.5-7.7C107,39.7,106.9,39.7,106.8,39.7 M106.8,52
			c-2.6,0.2-4.8-1.8-5-4.3s1.8-4.8,4.3-5c2.6-0.2,4.8,1.8,5,4.3c0,0.1,0,0.2,0,0.3c0.1,2.5-1.8,4.5-4.2,4.6
			C106.9,52,106.9,52,106.8,52 M86.8,42v3.3h7.8c-0.1,1.5-0.7,3-1.8,4.1c-1.6,1.6-3.8,2.5-6,2.4c-4.8-0.1-8.6-4-8.5-8.8
			c0.1-4.7,3.9-8.5,8.5-8.5c2.2,0,4.3,0.8,5.9,2.3l2.3-2.3c-2.2-2.1-5.1-3.3-8.2-3.3c-6.6-0.1-12,5.2-12.1,11.7
			c-0.1,6.6,5.2,12,11.7,12.1c0.1,0,0.3,0,0.4,0c3.1,0.1,6.2-1.1,8.3-3.3c1.9-2.1,2.9-4.8,2.8-7.6c0-0.7-0.1-1.4-0.2-2L86.8,42
			L86.8,42z M168.6,44.5c-0.9-2.8-3.6-4.8-6.6-4.9c-4,0-7.2,3.1-7.2,7.7c-0.1,4.1,3.2,7.6,7.3,7.7c0.1,0,0.2,0,0.3,0
			c2.6,0,5-1.3,6.4-3.4l-2.6-1.7c-0.8,1.3-2.2,2.1-3.8,2.1c-1.6,0.1-3.1-0.9-3.7-2.3l10.3-4.2L168.6,44.5L168.6,44.5z M158.2,47.1
			c-0.2-2.3,1.6-4.3,3.9-4.5c0,0,0.1,0,0.1,0c1.2-0.1,2.3,0.6,2.9,1.6L158.2,47.1L158.2,47.1z M149.8,54.6h3.4V32h-3.4V54.6z
			 M144.3,41.4h-0.1c-1-1.1-2.5-1.8-4-1.7c-4.2,0.2-7.5,3.8-7.3,8c0.2,4,3.4,7.2,7.3,7.3c1.5,0,3-0.6,4-1.7h0.1v1.1
			c0,2.9-1.6,4.5-4.1,4.5c-1.7,0-3.3-1.1-3.9-2.7l-2.9,1.2c1.1,2.8,3.8,4.6,6.8,4.5c4,0,7.3-2.3,7.3-8V40.1h-3.2L144.3,41.4
			L144.3,41.4z M140.4,52c-2.4-0.1-4.3-2.1-4.3-4.5c0,0,0-0.1,0-0.1c-0.1-2.5,1.8-4.6,4.2-4.7c0,0,0,0,0,0c2.3,0,4.1,2,4.1,4.7
			S142.7,52,140.4,52 M184.4,32h-8.1v22.6h3.4V46h4.7c3.9,0.2,7.2-2.8,7.4-6.6c0.2-3.9-2.8-7.2-6.6-7.4C184.9,32,184.7,32,184.4,32
			 M184.5,42.9h-4.8v-7.7h4.8c2.1,0,3.9,1.6,4,3.8c0,2.1-1.6,3.9-3.8,4C184.6,42.9,184.6,42.9,184.5,42.9 M205.3,39.6
			c-2.5-0.1-4.9,1.2-6,3.5l3,1.2c0.6-1.1,1.8-1.8,3.1-1.7c1.7,0,3.5,1,3.5,2.9v0.2c-1.1-0.6-2.3-0.9-3.5-0.9c-3.2,0-6.5,1.8-6.5,5.1
			c0,3,2.6,5,5.6,5c1.7,0.1,3.4-0.7,4.3-2.2h0.1v1.7h3.3v-8.7C212.2,41.8,209.2,39.6,205.3,39.6 M204.9,52c-1.1,0-2.6-0.6-2.6-1.9
			c0-1.7,1.9-2.4,3.6-2.4c1.1,0,2.1,0.2,3.1,0.8C208.7,50.4,207,52,204.9,52 M224,40.1l-3.9,9.8h-0.1l-4-9.8h-3.6l6,13.7l-3.4,7.6
			h3.5l9.3-21.3L224,40.1L224,40.1z M193.7,54.5h3.4V32h-3.4V54.5z"/>
		<path id="Pfad_67" class="st1" d="M38,35.5L18.8,55.9v0c0.7,2.8,3.6,4.4,6.4,3.7c0.5-0.1,0.9-0.3,1.3-0.5l0.1,0l21.6-12.5L38,35.5
			L38,35.5z"/>
		<path id="Pfad_68" class="st2" d="M57.5,32L57.5,32l-9.4-5.4l-10.5,9.4l10.6,10.6l9.3-5.4c2.5-1.4,3.5-4.5,2.1-7
			C59.1,33.2,58.4,32.5,57.5,32"/>
		<path id="Pfad_69" class="st3" d="M18.8,17.1c-0.1,0.4-0.2,0.9-0.2,1.3v36c0,0.5,0.1,0.9,0.2,1.3L38.7,36L18.8,17.1z"/>
		<path id="Pfad_70" class="st4" d="M38.2,36.5l9.9-9.9L26.5,14c-2.5-1.5-5.7-0.7-7.1,1.8c-0.2,0.4-0.4,0.9-0.6,1.3l0,0L38.2,36.5
			L38.2,36.5z"/>
	</g>
	<g id="Gruppe_39" transform="translate(74.572 12.461)">
		<path id="Pfad_71" class="st0" d="M2,11.2c-0.7-0.5-1.1-1.2-1.4-2l1.6-0.7C2.4,9.1,2.6,9.5,3,9.9c0.3,0.3,0.8,0.4,1.2,0.4
			c0.5,0,1-0.2,1.3-0.6c0.3-0.4,0.5-1,0.5-1.5V0.4h1.7v7.7c0,0.7-0.1,1.4-0.5,2c-0.3,0.5-0.7,1-1.3,1.3C4.8,12.1,3.2,12,2,11.2
			L2,11.2z"/>
		<path id="Pfad_72" class="st0" d="M10.5,0.4h6.8V2h-5.1v3.2h4.6v1.6h-4.6V10h5.1v1.6h-6.8V0.4z"/>
		<path id="Pfad_73" class="st0" d="M22.1,2h-3.2V0.4h8V2h-3.1v9.6h-1.7L22.1,2L22.1,2z"/>
		<path id="Pfad_74" class="st0" d="M28.2,9.9L34.1,2h-5.6V0.4h7.6v1.8L30.3,10h5.9v1.6h-7.9L28.2,9.9L28.2,9.9z"/>
		<path id="Pfad_75" class="st0" d="M40.8,2h-3.2V0.4h8V2h-3.1v9.6h-1.7L40.8,2L40.8,2z"/>
		<path id="Pfad_76" class="st0" d="M51,0.4h4.2c0.6,0,1.1,0.1,1.7,0.4c0.5,0.2,0.9,0.6,1.2,1.1c0.3,0.4,0.5,1,0.4,1.5
			c0,0.5-0.1,1-0.4,1.5c-0.3,0.4-0.7,0.7-1.1,1v0.1c0.6,0.2,1,0.5,1.4,1c0.3,0.5,0.5,1,0.5,1.6c0,0.6-0.2,1.2-0.5,1.6
			c-0.3,0.5-0.8,0.9-1.3,1.1c-0.5,0.3-1.2,0.4-1.8,0.4H51L51,0.4L51,0.4z M55.2,5.1c0.5,0,0.9-0.2,1.3-0.5c0.3-0.3,0.5-0.7,0.5-1.1
			c0-0.4-0.2-0.8-0.5-1.1C56.1,2.1,55.7,2,55.2,2h-2.5v3.1L55.2,5.1L55.2,5.1z M55.4,10c0.5,0,1-0.2,1.3-0.5c0.7-0.6,0.7-1.7,0-2.3
			c0,0,0,0,0,0c-0.4-0.3-0.9-0.5-1.4-0.5h-2.6V10L55.4,10L55.4,10z"/>
		<path id="Pfad_77" class="st0" d="M61.2,0.4H68V2H63v3.2h4.6v1.6H63V10H68v1.6h-6.8V0.4z"/>
		<path id="Pfad_78" class="st0" d="M70.5,0.4h1.7v11.2h-1.7V0.4z"/>
	</g>
</g>
</svg>
