<?xml version="1.0" encoding="utf-8"?>
<!-- Generator: Adobe Illustrator 28.0.0, SVG Export Plug-In . SVG Version: 6.00 Build 0)  -->
<svg version="1.1" id="Ebene_1" xmlns="http://www.w3.org/2000/svg" xmlns:xlink="http://www.w3.org/1999/xlink" x="0px" y="0px"
	 viewBox="0 0 137.5 22.4" style="enable-background:new 0 0 137.5 22.4;" xml:space="preserve">
<style type="text/css">
	.st0{fill:#F4743B;}
</style>
<path id="Pfad_51" class="st0" d="M10.9,0.5l-3,6C7.9,6.7,7.6,6.9,7.3,6.9l-6.6,1C0,8-0.3,8.9,0.3,9.4L5,14c0.2,0.2,0.3,0.5,0.3,0.8
	l-1.1,6.6c-0.1,0.7,0.6,1.3,1.3,0.9l5.9-3.1c0.3-0.1,0.6-0.1,0.8,0l5.9,3.1c0.6,0.3,1.4-0.2,1.3-0.9l-1.1-6.6c0-0.3,0-0.6,0.3-0.8
	l4.8-4.7c0.5-0.5,0.2-1.4-0.5-1.5l-6.6-1c-0.3,0-0.5-0.2-0.7-0.5l-3-6C12.2-0.2,11.3-0.2,10.9,0.5z"/>
<path id="Pfad_51_00000117637228512446849870000010801727701156793225_" class="st0" d="M39.5,0.5l-3,6c-0.1,0.3-0.4,0.4-0.7,0.5
	l-6.6,1c-0.7,0.1-1,1-0.5,1.5l4.8,4.7c0.2,0.2,0.3,0.5,0.3,0.8l-1.1,6.6c-0.1,0.7,0.6,1.3,1.3,0.9l5.9-3.1c0.3-0.1,0.6-0.1,0.8,0
	l5.9,3.1c0.6,0.3,1.4-0.2,1.3-0.9l-1.1-6.6c0-0.3,0-0.6,0.3-0.8l4.8-4.7c0.5-0.5,0.2-1.4-0.5-1.5l-6.6-1c-0.3,0-0.5-0.2-0.7-0.5
	l-3-6C40.7-0.2,39.8-0.2,39.5,0.5z"/>
<path id="Pfad_51_00000173130922540935788870000012341613958779414967_" class="st0" d="M68,0.5l-3,6c-0.1,0.3-0.4,0.4-0.7,0.5
	l-6.6,1c-0.7,0.1-1,1-0.5,1.5l4.8,4.7c0.2,0.2,0.3,0.5,0.3,0.8l-1.1,6.6c-0.1,0.7,0.6,1.3,1.3,0.9l5.9-3.1c0.3-0.1,0.6-0.1,0.8,0
	l5.9,3.1c0.6,0.3,1.4-0.2,1.3-0.9l-1.1-6.6c0-0.3,0-0.6,0.3-0.8l4.8-4.7c0.5-0.5,0.2-1.4-0.5-1.5l-6.6-1c-0.3,0-0.5-0.2-0.7-0.5
	l-3-6C69.2-0.2,68.3-0.2,68,0.5z"/>
<path id="Pfad_51_00000081638066900260316900000004904980270306471359_" class="st0" d="M96.5,0.5l-3,6c-0.1,0.3-0.4,0.4-0.7,0.5
	l-6.6,1c-0.7,0.1-1,1-0.5,1.5l4.8,4.7c0.2,0.2,0.3,0.5,0.3,0.8l-1.1,6.6c-0.1,0.7,0.6,1.3,1.3,0.9l5.9-3.1c0.3-0.1,0.6-0.1,0.8,0
	l5.9,3.1c0.6,0.3,1.4-0.2,1.3-0.9l-1.1-6.6c0-0.3,0-0.6,0.3-0.8l4.8-4.7c0.5-0.5,0.2-1.4-0.5-1.5l-6.6-1c-0.3,0-0.5-0.2-0.7-0.5
	l-3-6C97.7-0.2,96.8-0.2,96.5,0.5z"/>
<path id="Pfad_51_00000084495304386566978150000000945797917472849843_" class="st0" d="M125,0.5l-3,6c-0.1,0.3-0.4,0.4-0.7,0.5
	l-6.6,1c-0.7,0.1-1,1-0.5,1.5l4.8,4.7c0.2,0.2,0.3,0.5,0.3,0.8l-1.1,6.6c-0.1,0.7,0.6,1.3,1.3,0.9l5.9-3.1c0.3-0.1,0.6-0.1,0.8,0
	l5.9,3.1c0.6,0.3,1.4-0.2,1.3-0.9l-1.1-6.6c0-0.3,0-0.6,0.3-0.8l4.8-4.7c0.5-0.5,0.2-1.4-0.5-1.5l-6.6-1c-0.3,0-0.5-0.2-0.7-0.5
	l-3-6C126.2-0.2,125.3-0.2,125,0.5z"/>
</svg>
