<?xml version="1.0" encoding="utf-8"?>
<!-- Generator: Adobe Illustrator 28.0.0, SVG Export Plug-In . SVG Version: 6.00 Build 0)  -->
<svg version="1.1" id="Ebene_1" xmlns="http://www.w3.org/2000/svg" xmlns:xlink="http://www.w3.org/1999/xlink" x="0px" y="0px"
	 viewBox="0 0 502.9 143.4" style="enable-background:new 0 0 502.9 143.4;" xml:space="preserve">
<style type="text/css">
	.st0{fill:#FFFFFF;}
	.st1{fill:#F4743B;}
</style>
<g>
	<path class="st0" d="M196.7,58.7c-3.3-3.2-7.8-4.9-13.4-4.9c-3.2,0-6.2,0.5-8.7,1.6c-2.6,1-4.7,2.6-6.4,4.6v-5.7h-9.8v44h10.3V76.1
		c0-4.3,1.1-7.6,3.3-9.8c2.2-2.3,5.2-3.4,9-3.4c3.3,0,5.9,1,7.8,2.9c1.8,1.9,2.7,4.8,2.7,8.7v23.9h10.3V73.2
		C201.7,66.8,200,62,196.7,58.7z"/>
	<path class="st0" d="M243.8,54.4v22.3c0,4.3-1.1,7.6-3.2,9.8c-2.2,2.3-5.1,3.4-8.8,3.4c-3.3,0-5.8-1-7.6-2.9
		c-1.8-2-2.7-4.9-2.7-8.9V54.4h-10.3v25.2c0,6.4,1.7,11.3,5.1,14.5c3.4,3.3,8,4.9,13.9,4.9c2.9,0,5.5-0.5,8-1.6s4.5-2.6,6.2-4.6v5.6
		h9.8v-44C254.2,54.4,243.8,54.4,243.8,54.4z"/>
	<path class="st0" d="M291.3,88.7c-1.5,1.2-3.5,1.8-5.8,1.8c-2,0-3.5-0.6-4.5-1.7c-1.1-1.1-1.6-2.8-1.6-4.9v-21h11.8v-8.2h-11.8
		V44.6h-10.3v10.1h-7.2v8.2h7.2v21.2c0,4.8,1.3,8.5,4,11c2.6,2.5,6.4,3.8,11.2,3.8c1.9,0,3.8-0.2,5.5-0.7s3.2-1.2,4.4-2.2
		L291.3,88.7z"/>
	<path class="st0" d="M312.4,60.8v-6.4h-9.8v44h10.3V77c0-4.4,1.1-7.8,3.4-10.1c2.2-2.3,5.4-3.5,9.4-3.5c0.7,0,1.5,0.1,2.4,0.2v-9.8
		C320.6,53.9,315.4,56.2,312.4,60.8z"/>
	<path class="st0" d="M336.9,54.4v44h10.3v-44H336.9z M346.8,36.4c-1.3-1.1-2.8-1.7-4.7-1.7c-1.9,0-3.4,0.6-4.7,1.8
		c-1.3,1.2-1.9,2.7-1.9,4.4c0,1.8,0.6,3.2,1.9,4.4s2.8,1.8,4.7,1.8c1.9,0,3.5-0.6,4.7-1.9c1.2-1.2,1.9-2.8,1.9-4.6
		C348.6,39,348,37.6,346.8,36.4z"/>
	<path class="st0" d="M392,54.4L378.1,87l-13.9-32.6h-10.7l19.2,44.2l-0.7,1.7c-1,2.2-2.1,3.8-3.3,4.7c-1.2,0.9-2.7,1.4-4.5,1.4
		c-1.4,0-2.7-0.3-4.1-0.8c-1.3-0.5-2.5-1.3-3.5-2.2l-4.1,7.6c1.4,1.3,3.1,2.2,5.3,3c2.2,0.7,4.3,1.1,6.5,1.1c3.9,0,7.2-1,10-2.9
		s5.1-5.3,7-10.1l20.6-47.6L392,54.4L392,54.4z"/>
	<path class="st0" d="M447.4,64.8c-2-3.4-4.8-6.1-8.4-8s-7.6-2.9-12.1-2.9s-8.5,1-12,2.9c-3.6,1.9-6.4,4.6-8.4,8s-3,7.3-3,11.6
		s1,8.2,3,11.7c2,3.4,4.8,6.1,8.4,8s7.6,2.9,12,2.9c4.5,0,8.5-1,12.1-2.9s6.4-4.6,8.4-8s3-7.3,3-11.7S449.4,68.2,447.4,64.8z
		 M436.3,86.4c-2.5,2.5-5.6,3.8-9.4,3.8s-6.9-1.3-9.4-3.8c-2.4-2.5-3.7-5.9-3.7-10s1.2-7.5,3.7-10c2.4-2.5,5.6-3.8,9.4-3.8
		s6.9,1.3,9.4,3.8s3.7,5.9,3.7,10S438.8,83.8,436.3,86.4z"/>
	<path class="st0" d="M492.6,54.4v22.3c0,4.3-1.1,7.6-3.2,9.8c-2.2,2.3-5.1,3.4-8.8,3.4c-3.3,0-5.9-1-7.6-2.9
		c-1.8-2-2.7-4.9-2.7-8.9V54.4H460v25.2c0,6.4,1.7,11.3,5.1,14.5c3.4,3.3,8,4.9,13.9,4.9c2.8,0,5.5-0.5,8-1.6s4.5-2.6,6.2-4.6v5.6
		h9.8v-44C503,54.4,492.6,54.4,492.6,54.4z"/>
</g>
<g>
	<path class="st0" d="M27.6,82.1c-3.9,5.3-3.7,11.5-0.9,20c-1,0.1-2.2,0.2-3.6,0.3c-10.2,0.7-18.7-0.5-20.8-5.9
		c-2.2-5.3,15-10.9,15-10.9l10.1-3.7C27.4,82,27.5,82.1,27.6,82.1z"/>
	<path class="st0" d="M118.6,96.5c-2.2,5.3-10.6,6.5-20.8,5.9c-2.1-0.1-3.8-0.3-5.1-0.4l0.9-3v-0.2v-0.2c1.9-7.4,0.9-12.2-1.3-15.7
		c0.4-0.3,0.8-0.7,1.2-1l10.1,3.7C103.6,85.6,120.8,91.2,118.6,96.5z"/>
	<path class="st1" d="M87.3,94.4c0,0.1,0,0.1,0,0.2c-0.1,0.4-0.2,0.8-0.3,1.2l0,0l-20,2.1l17.9,4.8c-0.1,0.3-0.2,0.5-0.3,0.8
		c-0.1,0.3-0.2,0.5-0.3,0.8c0,0.1,0,0.1-0.1,0.2c-0.1,0.3-0.2,0.6-0.3,0.8c-0.1,0.3-0.3,0.7-0.4,1c0,0.1-0.1,0.1-0.1,0.2
		c-0.4,0.9-0.8,1.9-1.2,2.8c-0.2,0.4-0.3,0.7-0.5,1.1c0,0,0,0,0,0.1c-0.2,0.5-0.4,1-0.7,1.5c0,0-0.1,0.1-0.2,0.4
		c0,0.1-0.1,0.1-0.1,0.2s-0.1,0.2-0.1,0.2c0,0.1-0.1,0.2-0.1,0.3c-0.1,0.2-0.3,0.5-0.4,0.8c-0.5,1-1.2,2.3-2.1,4l-10.9,2.4l7.7,3.4
		c-0.3,0.5-0.6,1-0.9,1.4c-0.1,0.2-0.2,0.4-0.4,0.6c-1.2,2-2.6,4.1-4.1,6.1l-0.1,0.1c-0.3,0.4-0.5,0.7-0.8,1.1
		c-0.3,0.4-0.5,0.7-0.8,1c-0.2,0.2-0.4,0.5-0.6,0.7c-1.5,1.8-4.4,2.8-7.4,2.8s-5.9-0.9-7.4-2.8c-0.5-0.6-1-1.2-1.4-1.8
		c-0.5-0.6-0.9-1.2-1.4-1.8c-0.3-0.5-0.6-0.9-1-1.4c-0.6-0.9-1.2-1.8-1.8-2.7c-0.2-0.4-0.5-0.7-0.7-1.1c-3.2-5.2-5.7-10.1-6.9-12.5
		c0-0.1,0-0.1-0.1-0.2c0-0.1,0-0.1-0.1-0.2c0-0.1-0.1-0.2-0.1-0.3l11.4-3.9l-13.9-1.7c-1.3-3.1-2.3-5.7-3-7.9c0,0.1-0.1,0.1-0.1,0.2
		c-2.2-6.4-2.2-9.8-1-12.1c0.7-1.4,1.9-2.5,3.3-3.6c0.2-0.1,0.3-0.3,0.5-0.4c4.6-3.6,11.5-3.9,13.3-3.9c0.3,0,0.5,0,0.5,0h19.3
		c0,0,0.2,0,0.5,0c1.9,0,8.8,0.3,13.3,3.9c0.2,0.1,0.3,0.3,0.5,0.4c2.1,1.7,3.7,3,4,5.7C87.8,90.9,87.7,92.4,87.3,94.4z"/>
	<path class="st1" d="M36.4,107.4L36.4,107.4c-1.3-3-2.3-5.5-3.1-7.7c0-0.1,0-0.1,0.1-0.2C34.1,101.8,35.1,104.4,36.4,107.4z"/>
	<path class="st1" d="M46.1,126.2c-3.6-5.6-6-10.7-6.9-12.5C40.4,116.1,42.8,121,46.1,126.2z"/>
	<path class="st1" d="M73.4,125.9c-1.3,2.1-2.6,4.1-4.1,6.1C70.8,130,72.2,127.9,73.4,125.9z"/>
	<path class="st1" d="M83.3,106.6c-0.3,0.9-0.8,1.8-1.2,2.8C82.5,108.4,82.9,107.5,83.3,106.6z"/>
	<path class="st0" d="M82.1,109.4c0.5-1.1,0.9-2,1.2-2.8C82.9,107.5,82.5,108.4,82.1,109.4z M69.3,132c1.5-2,2.8-4,4.1-6.1
		C72.2,127.9,70.8,130,69.3,132z M39.2,113.7c0.8,1.8,3.3,6.8,6.9,12.5C42.8,121,40.4,116.1,39.2,113.7z M33.4,99.5
		c0,0.1-0.1,0.1-0.1,0.2c0.8,2.2,1.8,4.7,3,7.7l0,0C35.1,104.4,34.1,101.8,33.4,99.5z"/>
	<g>
		<path class="st0" d="M47.7,37.6c0,5.7-4.6,10.3-10.3,10.3s-10.3-4.6-10.3-10.3s4.6-10.3,10.3-10.3S47.7,31.9,47.7,37.6z"/>
		<path class="st0" d="M92.3,37.6c0,5.7-4.6,10.3-10.3,10.3c-5.7,0-10.3-4.6-10.3-10.3S76.3,27.3,82,27.3S92.3,31.9,92.3,37.6z"/>
		<path class="st0" d="M112.8,21.3c-0.6,0-1.1,0.1-1.7,0.2c-0.3-11.2-9.5-20.1-20.7-20.1H28.8C17.6,1.4,8.4,10.3,8,21.5
			c-0.5-0.1-1-0.2-1.5-0.2c-3.6,0-6.6,3-6.6,6.6v15.9c0,3.6,3,6.6,6.6,6.6c0.5,0,1-0.1,1.4-0.2C8,61.6,17.3,70.7,28.7,70.7h61.5
			c11.4,0,20.7-9.2,20.8-20.6c0.5,0.1,1.1,0.2,1.7,0.2c3.6,0,6.6-3,6.6-6.6V27.9C119.4,24.3,116.4,21.3,112.8,21.3z M93,62.6
			c-8.2,1.1-28.8,1.7-33.3,1.8c-4.5-0.1-25.1-0.8-33.3-1.8c-8.2-1.1-13.6-9.4-12.7-29.3c1.5-19,4-20.4,8-22.8
			C24.2,9,33.6,8.6,38,8.5c4.1-0.1,4.3,3.5,5,6.6c0.5,2.4,2.8,4.1,5.2,4.1h23c2.4,0,4.7-1.7,5.2-4.1c0.6-3,0.9-6.6,5-6.6
			c4.5,0.1,13.8,0.5,16.3,2c4,2.5,6.5,3.9,8,22.8C106.6,53.2,101.2,61.6,93,62.6z"/>
		<path class="st0" d="M47.7,37.6c0,5.7-4.6,10.3-10.3,10.3s-10.3-4.6-10.3-10.3s4.6-10.3,10.3-10.3S47.7,31.9,47.7,37.6z"/>
		<path class="st0" d="M92.3,37.6c0,5.7-4.6,10.3-10.3,10.3c-5.7,0-10.3-4.6-10.3-10.3S76.3,27.3,82,27.3S92.3,31.9,92.3,37.6z"/>
		<path class="st0" d="M47.7,37.6c0,5.7-4.6,10.3-10.3,10.3s-10.3-4.6-10.3-10.3s4.6-10.3,10.3-10.3S47.7,31.9,47.7,37.6z"/>
		<path class="st0" d="M92.3,37.6c0,5.7-4.6,10.3-10.3,10.3c-5.7,0-10.3-4.6-10.3-10.3S76.3,27.3,82,27.3S92.3,31.9,92.3,37.6z"/>
	</g>
</g>
</svg>
